<svg width="853" height="726" viewBox="0 0 853 726" fill="none" xmlns="http://www.w3.org/2000/svg">
<path d="M163.412 646.775C158.595 694.939 132.105 721.027 83.9411 725.041C61.4646 725.041 41.7976 717.816 24.9402 703.367C8.88557 688.115 0.858241 669.251 0.858241 646.775V78.4398C1.66097 55.9633 10.0897 37.5004 26.1443 23.0512C42.199 7.79932 61.4646 0.173357 83.9411 0.173357H589.663C660.303 2.58156 713.685 18.2348 749.808 47.1332C785.931 75.2289 812.02 107.338 828.074 143.461C844.129 179.584 852.156 216.108 852.156 253.034C852.156 291.565 844.129 328.892 828.074 365.015C812.822 401.138 786.734 433.649 749.808 462.547C713.685 490.643 667.528 504.289 611.336 503.487H307.904C285.427 503.487 266.563 495.459 251.311 479.405C235.256 464.153 227.229 445.289 227.229 422.812C227.229 400.336 234.855 381.471 250.107 366.219C266.161 350.165 285.427 342.137 307.904 342.137H618.561C633.813 342.137 646.255 337.321 655.888 327.688C666.324 317.253 673.95 305.613 678.766 292.769C683.582 279.123 685.991 265.477 685.991 251.83C685.991 238.986 683.582 226.143 678.766 213.299C673.95 199.652 666.324 188.013 655.888 178.38C646.255 167.944 633.813 162.325 618.561 161.523H194.718C173.847 162.325 163.412 172.761 163.412 192.829V646.775Z" fill="white"/>
</svg>
